HIERARCHY
ROOT Hips
{
    OFFSET 0.000000 0.000000 0.000000
    CHANNELS 6 Xposition Yposition Zposition Zrotation Xrotation Yrotation
    JOINT Spine
    {
        OFFSET -0.000000 14.517291 0.000000
        CHANNELS 3 Zrotation Xrotation Yrotation
        JOINT Spine1
        {
            OFFSET -0.000000 37.558300 0.000000
            CHANNELS 3 Zrotation Xrotation Yrotation
            JOINT Neck
            {
                OFFSET -0.000000 37.404057 3.400369
                CHANNELS 3 Zrotation Xrotation Yrotation
                JOINT Head
                {
                    OFFSET -0.000000 24.785618 -3.540803
                    CHANNELS 3 Zrotation Xrotation Yrotation
                    End Site
                    {
                        OFFSET -0.000000 35.408028 0.000000
                    }
                }
            }
            JOINT LeftShoulder
            {
                OFFSET 6.992933 33.973492 -0.192664
                CHANNELS 3 Zrotation Xrotation Yrotation
                JOINT LeftArm
                {
                    OFFSET 21.527611 0.000000 0.000000
                    CHANNELS 3 Zrotation Xrotation Yrotation
                    JOINT LeftForeArm
                    {
                        OFFSET 56.353916 0.000000 0.000000
                        CHANNELS 3 Zrotation Xrotation Yrotation
                        JOINT LeftHand
                        {
                            OFFSET 47.774071 0.000000 0.000000
                            CHANNELS 3 Zrotation Xrotation Yrotation
                            End Site
                            {
                                OFFSET 26.556021 0.000000 0.000000
                            }
                        }
                    }
                }
            }
            JOINT RightShoulder
            {
                OFFSET -7.065357 33.973492 -0.192664
                CHANNELS 3 Zrotation Xrotation Yrotation
                JOINT RightArm
                {
                    OFFSET -21.527611 0.000000 0.000000
                    CHANNELS 3 Zrotation Xrotation Yrotation
                    JOINT RightForeArm
                    {
                        OFFSET -56.353916 0.000000 0.000000
                        CHANNELS 3 Zrotation Xrotation Yrotation
                        JOINT RightHand
                        {
                            OFFSET -47.774071 0.000000 0.000000
                            CHANNELS 3 Zrotation Xrotation Yrotation
                            End Site
                            {
                                OFFSET -26.556021 0.000000 0.000000
                            }
                        }
                    }
                }
            }
        }
    }
    JOINT LeftUpLeg
    {
        OFFSET 17.704014 0.000000 0.000000
        CHANNELS 3 Zrotation Xrotation Yrotation
        JOINT LeftLeg
        {
            OFFSET -0.000000 -81.181816 0.000000
            CHANNELS 3 Zrotation Xrotation Yrotation
            JOINT LeftFoot
            {
                OFFSET -0.000000 -62.821102 0.000000
                CHANNELS 3 Zrotation Xrotation Yrotation
                JOINT LeftToeBase
                {
                    OFFSET -0.000000 -11.507608 26.556021
                    CHANNELS 3 Zrotation Xrotation Yrotation
                    End Site
                    {
                        OFFSET -0.000000 0.000000 7.081605
                    }
                }
            }
        }
    }
    JOINT RightUpLeg
    {
        OFFSET -17.704014 0.000000 0.000000
        CHANNELS 3 Zrotation Xrotation Yrotation
        JOINT RightLeg
        {
            OFFSET -0.000000 -81.181816 0.000000
            CHANNELS 3 Zrotation Xrotation Yrotation
            JOINT RightFoot
            {
                OFFSET -0.000000 -62.821102 0.000000
                CHANNELS 3 Zrotation Xrotation Yrotation
                JOINT RightToeBase
                {
                    OFFSET -0.000000 -11.507608 26.556021
                    CHANNELS 3 Zrotation Xrotation Yrotation
                    End Site
                    {
                        OFFSET -0.000000 0.000000 7.081605
                    }
                }
            }
        }
    }
}
MOTION
Frames:    9
Frame Time:    0.008333
3.146048    158.028061    -29.255363    -0.704156    -2.331859    -28.862261    1.846395    -0.986331    2.932745    1.138787    1.960871    0.952546    10.012458    1.597079    10.367288    -4.537361    -0.223927    8.790395    3.320117    4.840623    -10.395929    -23.652771    2.156864    -20.058273    2.696783    -27.163433    -82.452408    -15.355784    -21.706438    -26.464878    -4.714773    7.779149    -3.716477    39.016903    10.388721    71.307243    3.424094    -7.987940    100.922501    4.601805    -11.473714    15.177225    14.023983    -17.244234    -2.477411    -11.764156    14.850663    7.276242    -5.624434    4.733113    23.897074    0.000000    0.000000    0.000000    -10.526596    6.651396    -1.611431    7.444054    19.633490    0.392166    2.363413    -20.942200    -22.496557    0.000000    0.000000    0.000000    
3.157319    158.024155    -29.263275    -0.708142    -2.335232    -28.854824    1.846110    -0.988990    2.931115    1.129437    1.975585    0.952010    9.994504    1.596243    10.349033    -4.504584    -0.250177    8.777400    3.219279    4.935599    -10.326438    -23.924854    2.078745    -20.295601    2.640981    -27.105583    -82.602493    -15.255917    -21.732059    -26.282572    -4.711507    7.782393    -3.716837    39.012691    10.385149    71.306793    3.375578    -8.022459    100.916878    4.736734    -11.432902    15.158270    14.023202    -17.250637    -2.477118    -11.765670    14.856548    7.286022    -5.623415    4.733827    23.883873    0.000000    0.000000    0.000000    -10.530366    6.644476    -1.594098    7.461459    19.654137    0.402771    2.347242    -20.958330    -22.528139    0.000000    0.000000    0.000000    
3.168225    158.016846    -29.270544    -0.714418    -2.334177    -28.852324    1.855220    -0.999895    2.938397    1.113909    1.992887    0.954435    9.977550    1.598101    10.329933    -4.468378    -0.276862    8.764132    3.130430    5.019330    -10.280152    -24.205936    2.031107    -20.527624    2.617769    -27.055563    -82.697533    -15.171151    -21.723917    -26.206501    -4.715940    7.782010    -3.715422    39.001369    10.411882    71.299629    3.360867    -8.069728    100.930717    4.753506    -11.460555    15.170338    14.030541    -17.255644    -2.467312    -11.771992    14.867647    7.275740    -5.618484    4.714849    23.883282    0.000000    0.000000    0.000000    -10.524601    6.630029    -1.583916    7.462196    19.683788    0.401840    2.344563    -20.971958    -22.536407    0.000000    0.000000    0.000000    
3.178179    158.010681    -29.277924    -0.716767    -2.337580    -28.842829    2.061150    -1.467513    2.389952    1.320204    2.716460    0.756508    8.641758    1.836964    10.522129    -3.633275    -0.839733    9.265925    2.221611    4.761250    -9.629936    -23.840307    2.867148    -20.447971    3.173844    -28.116945    -82.243629    -15.759121    -22.221888    -26.573009    -5.826853    7.857188    -2.806380    39.586117    10.274286    71.751350    3.255582    -8.113908    100.506660    4.753742    -11.345513    15.275456    14.031093    -17.264889    -2.467197    -11.780859    14.881001    7.278271    -5.607096    4.711749    23.874367    0.000000    0.000000    0.000000    -10.529513    6.625409    -1.570815    7.480026    19.701921    0.397278    2.348602    -20.999540    -22.561045    0.000000    0.000000    0.000000    
3.187888    158.005783    -29.283119    -0.721987    -2.341582    -28.833565    1.866224    -0.998971    2.949723    1.077730    2.016775    0.958569    9.930551    1.590434    10.281504    -4.392116    -0.347090    8.727652    2.971237    5.148587    -10.180140    -24.746685    2.115788    -20.977507    2.644731    -27.121363    -82.892311    -15.159921    -21.797762    -25.960060    -4.733135    7.798209    -3.742233    39.033787    10.393888    71.297005    3.417734    -7.987365    100.968430    4.654138    -11.462574    15.163732    14.033421    -17.271080    -2.463352    -11.786320    14.891869    7.280745    -5.614635    4.710832    23.861975    0.000000    0.000000    0.000000    -10.529058    6.623539    -1.567778    7.481732    19.720642    0.419344    2.339017    -21.009813    -22.583000    0.000000    0.000000    0.000000    
3.197988    157.998962    -29.290794    -0.724842    -2.346827    -28.823238    2.003300    -1.011133    2.795429    0.878752    1.849071    0.911631    9.891797    2.115144    10.313469    -4.348536    -0.688912    8.806213    2.729523    5.380999    -10.201974    -24.865089    2.151055    -20.921001    2.756634    -27.233879    -82.829971    -15.296234    -21.791222    -25.998056    -4.659921    7.964692    -3.203891    39.139938    10.223805    71.036583    3.485231    -7.807341    100.867706    4.598506    -11.361308    15.251355    14.031920    -17.280449    -2.453134    -11.789006    14.904512    7.284657    -5.595238    4.724951    23.832371    0.000000    0.000000    0.000000    -10.531665    6.620139    -1.555174    7.492608    19.737440    0.379568    2.344359    -21.024067    -22.568726    0.000000    0.000000    0.000000    
3.209574    157.991379    -29.296667    -0.724689    -2.350294    -28.806326    2.013430    -1.059662    2.801851    0.857342    1.963158    0.912928    9.861172    2.046530    10.288650    -4.321941    -0.715047    8.781232    2.683623    5.381799    -10.142745    -25.132484    2.408257    -21.168425    3.015715    -27.509567    -82.797989    -15.421992    -21.844563    -25.970390    -4.702132    7.932473    -3.253095    39.143909    10.230308    71.079185    3.485544    -7.824344    100.866135    4.583314    -11.381064    15.234251    14.025927    -17.291645    -2.457955    -11.793509    14.920692    7.264929    -5.604543    4.698266    23.841288    0.000000    0.000000    0.000000    -10.534578    6.552647    -1.565599    7.490192    19.896612    0.390390    2.357145    -21.063938    -22.581869    0.000000    0.000000    0.000000    
3.216418    157.986206    -29.306042    -0.729658    -2.350305    -28.785473    2.029793    -1.096467    2.800664    0.835478    2.051685    0.911970    9.840077    1.992747    10.276320    -4.309360    -0.736993    8.767439    2.613904    5.391467    -10.071557    -25.393730    2.658828    -21.428257    3.278144    -27.793297    -82.757004    -15.422473    -21.937748    -25.901932    -4.747195    7.903691    -3.288074    39.141350    10.247478    71.115654    3.478579    -7.851833    100.862175    4.577958    -11.400584    15.226580    14.028349    -17.305231    -2.474310    -11.803135    14.925655    7.282664    -5.603657    4.705782    23.825142    0.000000    0.000000    0.000000    -10.531217    6.611960    -1.582879    7.494366    19.776237    0.366096    2.338024    -21.043451    -22.540718    0.000000    0.000000    0.000000    
3.226023    157.981964    -29.312220    -0.731696    -2.353819    -28.766256    2.039494    -1.140513    2.798198    0.821395    2.144395    0.910401    9.795938    1.943658    10.272012    -4.268103    -0.749500    8.770077    2.540508    5.410350    -10.011083    -25.661562    2.929580    -21.689806    3.601396    -28.132639    -82.684357    -15.479347    -22.036192    -25.787592    -4.786737    7.868037    -3.301770    39.126698    10.266845    71.126663    3.518424    -7.877252    100.886108    4.756911    -11.452426    15.203577    14.024117    -17.314293    -2.468877    -11.804976    14.930098    7.265441    -5.580516    4.728453    23.810774    0.000000    0.000000    0.000000    -10.528375    6.606888    -1.584734    7.494661    19.798571    0.368559    2.329533    -21.051975    -22.563223    0.000000    0.000000    0.000000    
